<svg xmlns="http://www.w3.org/2000/svg" xmlns:xlink="http://www.w3.org/1999/xlink" width="128" height="119" viewBox="0 0 128 119">
    <defs>
        <path id="gc4b53pe9a" d="M0 0.48L121.726 0.48 121.726 118.867 0 118.867z"/>
    </defs>
    <g fill="none" fill-rule="evenodd">
        <g>
            <path fill="#0D6937" d="M118.752 118.228c.216-4.115 1.815-56.703 1.815-56.703-.232-33.788-29.383-42.58-45.943-47.847-5.622-1.759-9.739-2.775-11.407-5.173-1.667-2.395-2.36-4.097-2.36-4.097l-.005.012H60.873l-.005-.012s-.693 1.702-2.36 4.097c-1.668 2.398-5.785 3.414-11.406 5.173-16.56 5.267-45.712 14.06-45.944 47.847 0 0 1.6 52.588 1.815 56.703 6.678-.916 109.101-.916 115.78 0" transform="translate(0 -1)"/>
            <g transform="translate(0 -1) translate(0 .52)">
                <mask id="o5nb05352b" fill="#fff">
                    <use xlink:href="#gc4b53pe9a"/>
                </mask>
                <path fill="#ECAA1F" d="M4.095 116.55H117.63l1.778-55.582C119.186 28.53 91.5 19.735 74.959 14.48l-.686-.218c-.646-.202-1.277-.396-1.886-.583-4.887-1.5-8.418-2.585-10.121-5.032-.574-.826-1.04-1.573-1.403-2.205-.365.632-.83 1.38-1.404 2.206-1.702 2.446-5.233 3.53-10.12 5.031-.61.187-1.24.381-1.891.584l-.683.217C30.224 19.735 2.54 28.53 2.317 61.013l1.778 55.537zm115.779 2.317H1.85L0 61.042C.1 46.174 5.793 34.318 16.916 25.76c9.364-7.204 20.799-10.836 29.148-13.488l.687-.218c.66-.207 1.295-.4 1.908-.59 4.443-1.364 7.653-2.35 8.899-4.14 1.196-1.718 1.87-3.068 2.122-3.613l.103-.256L61.016.48l.933 2.981.799 1.6h-.005c.35.622.82 1.396 1.425 2.263 1.246 1.791 4.456 2.777 8.9 4.142.612.188 1.247.382 1.902.587l.69.22c8.35 2.652 19.786 6.284 29.149 13.488 11.123 8.558 16.815 20.414 16.917 35.237l-1.852 57.87z" mask="url(#o5nb05352b)"/>
            </g>
            <path fill="#CAAE41" d="M69.622 34.928c.062-.117.015-.22-.11-.288-.36-.185-.717-.38-1.068-.574-.126-.067-.229-.054-.307.066-.185.296-.373.593-.547.897-.09.154-.06.216.1.302.391.213.783.421 1.221.654.31-.315.52-.682.711-1.057zm4.333 6.4c-.265-.452-.625-.799-1.093-1.03-.209-.104-.43-.12-.656-.07-.302.064-.356.327-.425.574-.083.3 0 .454.306.537.265.074.533.145.804.203.066.016.147-.022.24-.037.24.213.468.464.63.765.141.261.251.54.371.807.036.086.05.195.2.188.016-.026.051-.058.061-.092.154-.586.304-1.172.45-1.757.064-.26.136-.51.333-.712.155-.16.447-.167.586.008.046.058.061.137.107.195.033.045.092.103.136.101.045-.003.101-.065.128-.114.05-.08.078-.173.112-.265.114-.287.055-.547-.159-.712-.283-.223-.53-.235-.815-.043-.263.18-.38.456-.48.736-.1.288-.167.587-.247.883l-.15.558c-.156-.259-.3-.49-.439-.724zm-5.6-1.277c.59-.227 1.175-.467 1.768-.685.775-.282 1.554-.555 2.333-.82.601-.206 1.206-.39 1.81-.587.426-.138.856-.28 1.283-.423.266-.09.53-.197.801-.275.373-.11.748-.2 1.136-.299l.081-.679c-.203.073-.35.124-.497.174-.829.25-1.658.496-2.485.75-.554.171-1.105.347-1.653.531-.548.183-1.095.373-1.64.567-.453.164-.906.338-1.36.506l-1.363.496c-.117.043-.239.09-.346.156-.25.151-.346.378-.292.726.165-.053.298-.09.423-.138zm8.47-5.476c-.657.202-1.312.398-1.964.602-.424.135-.844.275-1.266.406-.465.145-.933.268-1.39.427-.665.228-1.326.475-1.988.72-.623.228-1.243.461-1.864.694-.126.046-.262.09-.374.165-.237.157-.34.387-.288.726 1.696-.59 3.327-1.287 5.02-1.813 1.682-.52 3.36-1.068 5.07-1.613l.092-.64-1.049.326zM37.56 43.572c.007-.1.014-.204.023-.306-.025.003-.049.006-.074.006.016.101.035.2.051.301zm-9.225-3.037c-.06.062-.14.161-.204.157-.073-.003-.16-.097-.2-.17-.118-.206-.102-.424-.042-.648.087-.304.212-.592.4-.857.032-.047.01-.13.017-.196-.064.018-.154.015-.185.06-.418.541-.63 1.147-.53 1.837.026.19.128.335.274.452.215.17.421.137.557-.104.121-.217.18-.452.045-.725-.045.065-.08.137-.132.194zm26.416-8.308c.021.036.045.073.065.111.313.625.452 1.274.255 1.968-.01.033.026.081.041.13.041-.03.064-.037.074-.054.018-.038.032-.079.046-.118.22-.552.306-1.122.29-1.719-.017-.528-.314-.907-.598-1.339-.398.451-.418.592-.173 1.021zM84.37 46.41c.225-.564.317-1.147.288-1.752-.022-.5-.286-.877-.573-1.248-.009-.013-.038-.01-.085-.019-.04.06-.084.13-.13.196-.175.25-.177.476-.004.75.413.655.551 1.371.338 2.135-.008.023.02.057.053.153.057-.11.092-.16.113-.215zm16.083-5.285c-.056-.705-.136-1.404-.315-2.094-.125-.487-.41-.829-.78-1.12-.16-.128-.27-.078-.307.125-.026.144-.019.297-.048.44-.03.136.023.22.12.303.42.35.748.775.944 1.287.093.244.127.512.168.774.024.151.015.307.023.482.194-.003.205-.092.195-.197zm-3.886-7.284c-.042.061-.059.135-.098.201-.15.242-.376.242-.52-.002-.042-.074-.088-.159-.088-.238 0-.286-.004-.574.036-.854.058-.419.287-.77.506-1.12.062-.098.146-.192.03-.352-.07.037-.169.06-.217.121-.616.776-.905 1.652-.74 2.643.034.188.143.378.267.528.274.334.621.303.857-.06.193-.3.302-.622.154-1.058-.09.093-.146.138-.187.191zm-12.093-3.61c-.56.714-.834 1.518-.775 2.428.023.35.128.664.408.898.174.142.493.181.621.044.285-.302.447-.667.402-1.096-.007-.044-.05-.118-.08-.119-.052 0-.128.026-.153.07-.067.094-.098.213-.163.308-.119.174-.328.178-.452.011-.063-.083-.132-.187-.135-.282-.009-.295-.02-.598.02-.889.061-.44.298-.81.533-1.176.066-.1.141-.194.054-.318-.185 0-.185 0-.28.121zm-66.04 14.165c-.188-.275-.427-.5-.743-.629-.34-.137-.58-.018-.674.337-.02.07-.034.141-.052.228.241.23.567.23.857.301.094.022.176.026.236.1.206.245.404.494.5.808.028.098.085.185.153.326.051-.112.084-.162.101-.22.094-.348.17-.7.276-1.047.053-.18.126-.36.23-.516.111-.164.302-.142.427.015.048.061.088.126.164.233.067-.149.112-.244.15-.34.074-.209.032-.346-.134-.472-.188-.146-.342-.154-.525-.029-.189.13-.277.323-.339.527-.092.305-.175.61-.272.953-.132-.216-.234-.402-.355-.575zm44.398-25.567c.081-.212.04-.35-.126-.478-.186-.145-.344-.154-.527-.029-.196.136-.28.34-.343.556-.084.301-.175.597-.27.917-.13-.204-.23-.39-.354-.563-.187-.276-.424-.502-.74-.63-.343-.139-.579-.024-.677.332-.018.072-.033.143-.054.24.243.215.568.225.855.291.11.026.193.043.26.123.207.243.391.501.488.813.027.088.08.165.143.291.052-.102.088-.152.101-.208.094-.35.175-.7.276-1.049.053-.179.127-.36.231-.516.111-.165.301-.146.425.013.046.055.077.12.158.25.073-.165.12-.257.154-.353zm-23.536 9.103c-.118.214-.259.413-.365.628-.33.663-.432 1.367-.343 2.101.046.37.182.692.486.927.19.15.546.174.678.021.303-.355.444-.769.371-1.236-.005-.043-.057-.11-.088-.11-.053-.002-.127.027-.156.068-.05.067-.07.154-.103.231-.068.148-.134.294-.338.283-.189-.01-.266-.149-.34-.296-.017-.037-.04-.078-.042-.119-.013-.327-.044-.653-.019-.979.037-.485.287-.898.513-1.315.047-.086.066-.188.104-.302-.189-.047-.288-.032-.358.098zm11.09 9.005c-.616.8-.903 1.695-.825 2.702.026.354.15.678.438.917.208.175.551.203.698.031.287-.33.458-.712.406-1.16-.004-.06-.056-.156-.08-.155-.064.007-.144.043-.178.093-.067.094-.097.213-.158.312-.124.198-.367.215-.504.024-.083-.116-.15-.266-.164-.407-.037-.468-.018-.936.204-1.366.15-.29.314-.57.467-.859.036-.068.05-.146.075-.233-.202-.073-.288-.015-.379.101zm25.861-13.825c-.434-.168-.878-.318-1.323-.457-.063-.019-.2.041-.236.102-.166.31-.314.627-.455.946-.068.158-.02.232.142.288l1.176.4c.237.076.253.08.38-.139.143-.248.27-.507.4-.76.02-.039.03-.078.061-.16-.039-.063-.07-.192-.145-.22zm8.41 12.3c-.26-.368-.543-.716-.977-.893-.503-.204-.79-.052-.904.476-.05.234-.014.325.223.355.304.037.575.218.895.18.051-.008.127.04.161.09.241.332.545.626.656 1.04.02.074.042.145.067.215.036.097.104.13.225.058.113-.466.223-.95.351-1.434.053-.19.117-.39.224-.556.181-.284.41-.276.606-.006.053.074.077.184.233.152.053-.134.117-.278.162-.43.02-.064.011-.145-.01-.21-.076-.232-.227-.384-.485-.395-.254-.01-.453.09-.579.317-.212.378-.302.792-.41 1.204-.035.125-.06.256-.098.422-.13-.226-.222-.417-.34-.585zm6.802-2.33c-.272-.264-.578-.473-.986-.446-.316.018-.635.491-.5.772.044.096.184.163.296.205.2.074.41.117.618.17.05.011.124.042.15.02.12-.099.186.001.24.064.266.303.527.61.657 1.004.037.113.075.225.131.328.024.043.087.07.146.115.028-.068.05-.105.06-.143.13-.5.264-1.007.392-1.51.053-.207.111-.41.265-.57.178-.188.42-.182.565.025.057.078.05.253.194.202.076-.027.115-.159.168-.246.01-.017.013-.04.02-.06.111-.29.065-.478-.157-.644-.243-.184-.498-.189-.726.005-.095.08-.188.184-.232.297-.12.294-.218.596-.313.9-.067.21-.117.424-.192.71-.217-.497-.466-.875-.796-1.198zM51.865 23.94c-.387-.176-.774-.355-1.165-.524-.249-.114-.264-.109-.42.107-.167.233-.33.467-.504.708-.364-.159-.705-.304-1.044-.457-.105-.046-.21-.082-.29.026-.21.295-.424.587-.619.891-.095.148-.05.234.104.301.275.113.55.23.824.344.124.051.253.101.408.16.03-.047.052-.084.076-.118.094-.143.193-.283.282-.426.234-.37.296-.392.692-.213l.853.376c.26-.364.502-.696.741-1.034.028-.042.037-.099.055-.15l.007.01zm-2.139 10.193c.098-.345.194-.693.285-1.045.085-.328.142-.664.254-.982.06-.17.18-.345.318-.462.164-.14.43-.01.566.227.034.058.098.133.145.132.051 0 .114-.074.147-.132.05-.08.075-.175.11-.262.094-.256.033-.498-.167-.659-.24-.193-.5-.224-.735-.087-.296.175-.426.467-.53.77-.097.278-.165.57-.243.852-.05.177-.097.36-.146.55-.04-.035-.063-.044-.067-.064-.193-.518-.518-.95-.917-1.314-.185-.169-.423-.29-.656-.383-.243-.097-.514-.092-.72.104-.184.178-.179.444-.232.674-.01.044.05.117.095.152.066.052.14.1.221.12.274.084.55.16.827.222.057.013.127-.032.237-.068.19.24.413.484.585.758.15.24.243.517.366.775.034.08.087.151.144.25.064-.067.104-.094.113-.128zm-16.852-2.766c-.16-.209-.33-.415-.522-.592-.31-.286-.67-.49-1.12-.447-.249.023-.4.152-.464.394-.03.113-.049.228-.084.338-.044.14.017.228.136.286.081.041.171.075.263.095.227.054.455.102.684.151.051.012.122.04.154.017.137-.115.23-.004.297.071.182.191.362.39.506.608.15.23.253.488.384.73.04.077.102.141.171.233.053-.074.09-.105.097-.142.081-.34.16-.68.23-1.026.074-.35.12-.712.212-1.059.052-.197.151-.405.38-.469.236-.066.322-.01.488.241.034.051.108.121.155.116.052-.008.102-.086.133-.143.04-.075.061-.16.088-.242.094-.276.026-.52-.195-.67-.326-.22-.556-.176-.765-.028-.273.191-.388.478-.467.775-.122.456-.205.927-.31 1.423-.17-.249-.3-.46-.45-.66zm31.712-6.212c.668-.249 1.33-.51 2.001-.747.593-.209 1.19-.396 1.79-.582.87-.275 1.741-.54 2.614-.809.413-.129.835-.242 1.243-.388.303-.107.441-.36.393-.683-.326.088-.656.163-.977.263-1.013.32-2.026.646-3.037.972-.283.09-.569.181-.849.28-.63.221-1.262.445-1.89.673-.419.152-.835.31-1.26.452-.23.077-.34.225-.343.464-.002.052 0 .105 0 .205.118-.036.22-.063.315-.1zm-45.228 9.712c-.196-.074-.273-.062-.344.092-.14.311-.269.627-.389.946-.063.171-.015.255.151.321.354.137.712.265 1.1.411.195-.385.382-.76.578-1.15.47.207.91.402 1.38.611.206-.39.397-.742.58-1.102.051-.1.036-.203-.096-.26-.462-.209-.923-.42-1.402-.64-.29.32-.367.746-.615 1.128-.329-.122-.635-.24-.943-.357zm44.72-12.348c-.328-.132-.658-.254-.978-.398-.164-.074-.263-.042-.347.1-.15.27-.307.536-.45.81-.042.076-.05.17-.079.263l1.426.577c.177-.269.351-.53.542-.816.502.186.998.373 1.525.57.271-.38.526-.76.755-1.199-.5-.2-.963-.26-1.423-.454-.188.064-.284-.135-.374.014-.117.2-.245.396-.375.604-.085-.028-.157-.045-.222-.07zm41.267 23.186c-.185-.535-.525-.969-.93-1.348-.265-.246-.58-.434-.963-.442-.404-.008-.792.504-.68.887.017.044.053.096.094.121.09.054.185.103.285.135.233.07.467.133.705.185.094.02.191.005.29.005.012-.02.023-.043.04-.063.206.28.434.543.616.837.143.231.233.5.347.75.041.094.054.212.204.21.017-.024.051-.044.057-.072.103-.367.21-.735.303-1.102.072-.279.13-.558.195-.835.047-.188.128-.356.258-.506.227-.257.526-.235.69.074.048.081.057.216.176.18.07-.02.123-.124.168-.2.038-.063.054-.138.083-.209.15-.379-.124-.813-.536-.85-.286-.026-.484.107-.652.323-.283.367-.326.825-.469 1.241-.084.233-.133.48-.199.727-.053-.032-.078-.036-.082-.048zm-56.377-.457c-.202-.144-.28-.16-.453.031-.187.213-.372.436-.545.662-.146.19-.135.282.061.426.322.225.655.44.987.646.235.147.264.14.472-.049.173-.156.332-.32.502-.483l1.153.7c.353-.22.574-.58.84-.89.116-.133.07-.237-.09-.339-.295-.19-.596-.368-.889-.56-.23-.153-.252-.158-.445.061l-.49.54c-.387-.256-.75-.494-1.103-.745zm49.897-9.674c-.624.197-1.25.387-1.87.585-.478.154-.957.316-1.433.477-.496.162-.998.321-1.488.498-.515.182-1.023.382-1.539.57-.542.2-1.089.385-1.632.586-.367.138-.626.494-.508.872.058-.009.121-.006.176-.026.28-.103.553-.214.83-.318.7-.264 1.397-.529 2.096-.788.487-.18.972-.362 1.464-.526.57-.187 1.145-.357 1.72-.537.307-.098.612-.209.922-.309.31-.098.624-.183.934-.286.325-.109.642-.24.974-.335.116-.034.188-.087.233-.188.085-.192.16-.388.274-.66-.438.15-.794.27-1.153.385zM29.24 30.215c.938-.41 1.867-.839 2.813-1.234.82-.339 1.654-.637 2.482-.96.588-.228 1.168-.473 1.758-.694.808-.295 1.62-.574 2.432-.862.645-.228 1.291-.462 1.934-.698.263-.095.352-.312.24-.638-.37.115-.743.225-1.114.342-.239.08-.476.16-.71.244-.477.172-.95.347-1.422.52-.763.274-1.53.544-2.292.822-.565.207-1.127.423-1.684.64-.53.21-1.055.421-1.578.637-.448.187-.89.386-1.337.573-.475.201-.957.385-1.427.596-.363.167-.489.422-.414.831.125-.045.222-.078.32-.119zm69.436 13.201c.003-.025.005-.048.01-.073-.105-.05-.205-.107-.314-.15-.499-.208-1.004-.413-1.506-.618-.77-.309-1.536-.632-2.314-.922-.588-.218-1.189-.407-1.823-.446-.272-.018-.537.022-.78.132-.307.137-.554.343-.577.704-.015.24.04.481.162.703.122.213.217.44.304.668.18.475.347.958.518 1.437.578.143 1.14.048 1.696-.017.691-.076 1.36-.268 2.011-.49.876-.297 1.745-.619 2.613-.928zm3.148-.332c-.026.127-.034.243-.077.343-.11.252-.242.494-.357.746-.067.145-.156.22-.325.181-.519-.12-1.035-.039-1.552.025-.979.124-1.865.517-2.766.87-1.206.467-2.414.916-3.72 1.014-.187.013-.38.022-.595.036-.038.337-.072.671-.11 1.045-.218-.177-.1-.377-.155-.54-.06-.167-.07-.353-.099-.522-.279-.088-.545-.16-.803-.253-.893-.324-1.443-.944-1.61-1.89-.069-.373-.144-.744-.28-1.127-.049.108-.107.217-.145.331-.132.43-.3.842-.536 1.228-.097.16-.155.351-.213.532-.199.608-.554 1.126-.908 1.646-.26.376-.559.728-.85 1.078-.157.191-.336.36-.516.525-.067.063-.157.116-.248.135-.85.193-1.705.38-2.56.563-.038.006-.08 0-.196 0 .102-.079.148-.122.202-.15.642-.36 1.291-.7 1.917-1.08.59-.359 1.05-.868 1.485-1.395.45-.554.882-1.123 1.292-1.705.31-.444.561-.927.73-1.442.022-.07.03-.148.033-.219.063-1.034-.012-2.066-.087-3.098-.124-1.725-.423-3.428-.659-5.138-.18-1.308-.413-2.608-.624-3.91-.133-.833-.272-1.662-.409-2.492-.023-.129-.043-.252-.08-.374-.165-.582.144-1.082.277-1.61.015-.058.095-.097.171-.17.047.092.092.15.108.216.23.887.43 1.782.69 2.658.306 1.026.493 2.074.674 3.122.138.79.304 1.574.41 2.364.17 1.28.306 2.562.448 3.843.077.697.128 1.4.203 2.1.092.793.195 1.584.3 2.375.045.342.151.665.335.961.172.28.41.48.738.641-.03-.135-.047-.237-.076-.336-.092-.304-.203-.603-.282-.91-.073-.3-.084-.603.01-.907.126-.406.164-.84.403-1.205.088-.14.18-.282.29-.407.613-.679 1.37-.883 2.256-.692.927.197 1.785.571 2.65.94 1.422.601 2.84 1.212 4.265 1.812.204.084.426.12.64.177.091.022.185.038.311.065zM36.538 37.18c.433.613 1.408.881 2.108.588-.323-.406-.713-.708-1.213-.834-.323-.082-.625-.002-.895.246zM21.22 40.533c-.222.361-.434.703-.642 1.046-.028.046-.05.096-.064.148-.12.46-.246.91-.147 1.402.055.268.186.385.416.454.353.11.671-.002.984-.15.591-.282 1.11-.67 1.636-1.05.28-.2.296-.468.035-.694-.225-.19-.466-.378-.732-.508-.484-.239-.988-.436-1.486-.648zm18.006-1.452c-.432.06-.83.14-1.23.164-.295.02-.6 0-.89-.05-.606-.102-1.016-.486-1.258-1.029-.08-.177-.084-.424-.036-.62.082-.326.213-.647.361-.952.23-.488.658-.774 1.13-.99.398-.184.773-.086 1.121.146.614.404.977.997 1.202 1.684l.055.17c1.501-.343 2.821-1.143 4.27-1.632-.434-.077-.867-.142-1.3-.225-.986-.192-1.967-.393-2.95-.58-.472-.09-.947-.15-1.42-.233-.23-.04-.46-.093-.686-.152-.166-.042-.214-.133-.13-.283.086-.159.221-.29.303-.452.201-.384.48-.552.94-.539.428.01.87-.08 1.292-.174.605-.132 1.198-.306 1.798-.46.071-.02.138-.054.207-.08.216-.08.324-.22.303-.464-.055-.605-.084-1.212-.147-1.815-.156-1.387-.336-2.773-.484-4.163-.089-.837-.139-1.678-.212-2.519-.009-.114-.028-.233-.064-.343-.09-.274-.177-.549-.297-.81-.08-.173-.067-.294.058-.432.161-.17.308-.354.461-.53.05-.054.102-.113.163-.15.116-.07.206-.033.25.092.247.747.487 1.496.745 2.24.08.222.067.4-.124.54-.22.163-.266.368-.236.641.148 1.24.266 2.482.407 3.721.055.52.16 1.033.217 1.553.062.55.117 1.108-.024 1.654-.065.254-.184.495-.296.733-.093.191-.23.36-.319.554-.17.381-.479.614-.89.842.986.264 1.928.431 2.89.603.08-.239.018-.468.004-.694-.053-.87-.136-1.743-.177-2.616-.093-2.078-.165-4.157-.256-6.237-.009-.217-.074-.435-.12-.656-.058-.268-.136-.537-.178-.81-.017-.105.011-.238.07-.326.191-.284.398-.557.608-.824.047-.06.128-.094.186-.134.225.146.288.351.338.567.218.957.44 1.911.667 2.864.07.282.042.535-.163.742-.404.401-.479.88-.439 1.432.11 1.53.171 3.066.267 4.598.044.68.124 1.358.181 2.036.012.17.074.243.248.263.954.1 1.904.22 2.857.316.255.026.51-.004.767-.004.085-.003.172-.005.256.01.184.026.254.121.176.287-.176.363-.372.715-.552 1.057-1.225-.06-2.39.085-3.586.294.055 1.357.017 2.684-.58 3.952-.32-.177-.4.224-.645.256-.373-.227-.745-.453-1.132-.686-.175.17-.336.336-.51.493-.195.174-.229.182-.447.051-.334-.209-.666-.424-.989-.65-.215-.154-.22-.247-.064-.45.17-.219.347-.432.532-.638.176-.2.25-.185.474-.022.304.217.625.406.935.615.123.085.22.06.308-.042.12-.138.235-.278.353-.41.165-.182.208-.182.404-.05.183.123.372.242.562.365.131-.3.065-2.02-.092-2.595-.48.04-1.569.346-1.948.562.216.144.413.276.611.404.15.102.301.207.458.296.138.08.18.198.102.321-.209.331-.355.705-.664 1.005-.407-.257-.81-.514-1.212-.769-.145-.09-.12-.214-.048-.33.118-.205.243-.403.363-.602.032-.055.058-.115.123-.248-.495.223-.92.422-1.352.606-.432.185-.869.35-1.305.524-.134.581-.215 1.175-.484 1.714-.073.152-.148.314-.258.438-.338.37-.67.747-1.046 1.075-.61.532-1.249 1.036-1.886 1.537-.25.196-.526.363-.804.52-.584.326-1.163.674-1.803.884-.809.271-1.618.294-2.366-.172-.37-.228-.707-.509-1.095-.792-.342.23-.73.493-1.12.752-.818.54-1.633 1.083-2.458 1.612-.314.203-.647.355-1.024.427-.73.133-1.372-.34-1.596-.942-.223-.6-.262-1.227-.3-1.854-.003-.06-.006-.12-.014-.238-.219.153-.4.278-.577.408-.444.321-.9.616-1.426.78-.412.127-.785.05-1.074-.287-.077-.092-.139-.219-.16-.34-.157-.866-.18-1.739-.066-2.61.07-.527.195-1.048.507-1.52-.073-.055-.129-.096-.186-.136-.382-.29-.767-.573-1.145-.869-.25-.196-.49-.409-.728-.622-.066-.06-.134-.146-.148-.232-.054-.337-.09-.675-.125-1.013-.006-.055.027-.116.05-.2.086.033.155.051.217.084.436.226.866.46 1.304.682.146.074.238.156.238.337 0 .08.057.193.123.233.348.227.71.435 1.1.666.127-.192.26-.357.361-.539.357-.647.772-1.248 1.232-1.827.538-.676 1.056-1.366 1.455-2.137.051-.106.125-.2.184-.3.016-.026.027-.055.044-.08.016.012.036.023.052.036-.036.085-.067.167-.105.247-.253.495-.432 1.02-.612 1.543-.136.398-.36.774-.59 1.13-.414.634-.859 1.246-1.288 1.87-.06.087-.115.176-.189.296.304.142.6.265.878.414.22.122.451.251.631.423.278.267.44.584.46 1.012.021.563.032 1.126.003 1.687-.007.146-.028.308-.096.427-.259.45-.164.892.018 1.32.19.445.52.757 1.023.822.182.023.382.005.561-.048.597-.182 1.11-.536 1.63-.869.537-.344 1.061-.709 1.59-1.068.255-.173.505-.35.77-.533-.069-.257-.15-.499-.198-.746-.11-.595-.044-1.197.07-1.778.174-.898.535-1.73 1.035-2.499.061-.092.111-.21.286-.148-.022.066-.035.122-.058.177-.12.273-.245.544-.368.814-.267.608-.356 1.25-.402 1.9-.044.608.152 1.153.528 1.664.124-.082.24-.148.346-.23.838-.64 1.683-1.276 2.508-1.933.213-.167.384-.399.548-.62.242-.328.21-.59-.067-.887-.252-.268-.558-.454-.899-.59-.569-.227-1.164-.347-1.766-.434-1.237-.184-2.41-.555-3.468-1.236-.293-.19-.57-.417-.815-.664-.216-.217-.435-.413-.727-.5-.258-.082-.337-.26-.345-.51-.006-.244-.032-.489-.053-.733-.014-.164-.014-.164.116-.332.384.157.762.322 1.147.472.24.091.485.164.732.233.202.06.302.186.302.395 0 .055.01.11.006.161-.015.21.09.325.272.422.813.421 1.684.656 2.582.818.585.105 1.167.242 1.746.384.205.05.4.147.59.247.365.193.67.446.79.874.084.306.218.601.297.91.2.78.091 1.51-.352 2.2-.243.372-.515.698-.866.972-.528.413-1.049.84-1.572 1.26-.063.05-.119.11-.21.191.53.356 1.06.592 1.69.493.45-.07.868-.232 1.272-.42.36-.164.715-.338 1.051-.54 1.367-.824 2.638-1.772 3.752-2.92.076-.076.136-.167.208-.243.164-.17.164-.358.06-.555zm42.648-10.34l.062.065c.5-.145 1.004-.272 1.494-.438.23-.078.428-.23.636-.355.135-.08.167-.206.145-.36-.047-.342-.138-.675-.338-.955-.385-.542-.527-.519-.868-.044-.31.428-.562.9-.823 1.363-.123.23-.205.482-.308.724zm-6.307.178c.134.12.23.2.323.285.272.257.6.441.887.684.352.306.754.556 1.143.815.235.156.33.343.245.621-.044.151-.057.314-.056.474.002.098.025.222.087.288.587.648 1.183 1.284 1.781 1.923.018.02.052.027.108.05-.146-1.264-.286-2.506-.42-3.689-.352-.172-.688-.29-.966-.489-.282-.2-.46-.526-.493-.869-.032-.339.032-.687.056-1.022-.864.297-1.743.602-2.695.93zM53.29 27.743c.3.033 2.031-.438 2.293-.636-.15-.632-.336-1.279-.453-1.936-.124-.716-.319-1.408-.553-2.095-.122-.365-.295-.683-.555-.957-.354-.38-.779-.645-1.333-.754l.601 6.378zM66.903 38.33c-.167.155-.257.02-.352-.069-.592-.547-1.29-.824-2.089-.898-.545-.052-1.085-.037-1.63.006-1.113.093-2.183.316-3.137.95-.195.128-.248.255-.246.464.006 1.1.424 2.056 1.03 2.94.346.508.797.915 1.283 1.29.536.414 1.094.731 1.805.803.595.058 1.127-.122 1.688-.199.011 0 .021-.01.03-.014.635-.322 1.27-.645 1.912-.965.125-.062.185-.152.232-.279.207-.583.423-1.16.641-1.739.031-.082.085-.157.128-.236l.075.027c-.18.617-.363 1.23-.545 1.842.27-.117.477-.282.701-.415.227-.14.381-.383.653-.473.007.09.001.162-.034.218-.1.163-.218.317-.315.483-.275.472-.554.933-1.049 1.213-.13.07-.173.18-.16.317.03.274.048.551.096.823.196 1.15.923 1.872 1.941 2.321.805.356 1.644.377 2.496.14 1.201-.333 2.306-.882 3.383-1.489.565-.317 1.114-.668 1.657-1.024.666-.439 1.335-.88 1.97-1.36.498-.383.952-.819 1.417-1.242.24-.217.384-.496.374-.819-.018-.777-.019-1.558-.102-2.329-.089-.87-.256-1.728-.4-2.59-.02-.118-.082-.242-.162-.33-.637-.674-1.298-1.326-1.92-2.01-.612-.673-1.177-1.382-1.652-2.156-.078-.126-.185-.234-.294-.333-.247-.219-.496-.44-.76-.636-.303-.228-.386-.506-.31-.869.042-.223.037-.454.055-.67-.702.132-1.359.252-2.017.384-1.004.2-2.009.23-3.019.027-.78-.157-1.385-.543-1.717-1.286-.104-.233-.175-.48-.242-.727-.07-.256-.112-.52-.178-.78-.089-.353-.329-.496-.669-.377-.177.062-.364.147-.497.278-.326.318-.662.638-.924 1.01-.617.87-1.407 1.531-2.317 2.064-.102.061-.228.105-.274.271.72.132 1.42.268 2.121.385.852.143 1.707.274 2.557.407.72.114 1.432.238 2.148.324.478.055.96.057 1.44.068.404.007.806-.01 1.212-.018h.384c-.018.13-.007.252-.055.346-.14.276-.294.545-.465.804-.049.073-.163.135-.257.145-.715.088-1.442.14-2.156.248-.864.133-1.702.366-2.509.721-1.072.473-2.16.908-3.24 1.367-1.198.503-2.42.811-3.736.573-.207-.038-.397-.094-.542-.244-.156-.158-.316-.322-.43-.51-.387-.624-.627-1.307-.709-2.035-.056-.487-.084-.978-.11-1.466-.066-1.213-.124-2.43-.187-3.642-.009-.157-.03-.31-.049-.499l-2.332 1.19.22 2.266c.116 1.19.243 2.375.346 3.566.06.691.071 1.383.118 2.076.086 1.234.177 2.466.276 3.7.058.732.108 1.466.294 2.183.274 1.047.752 1.924 1.756 2.464.62.334 1.26.435 1.942.394.025 0 .051-.029.098-.057-.098-.07-.182-.134-.263-.195-.883-.64-1.63-1.395-2.103-2.404-.4-.868-.625-1.766-.58-2.722.002-.095.02-.193.056-.282.276-.7.66-1.34 1.234-1.837.27-.235.584-.426.901-.593.608-.322 1.28-.38 1.955-.395.72-.014 1.431.067 2.105.32.898.335 1.5 1.01 2.004 1.795zm-29.342 5.243c-.016.014-.042.026-.043.044-.198 1.072-.009 2.098.453 3.073.095.205.267.382.427.55.33.35.906.246 1.17-.13.404-.589.777-1.196 1.032-1.873.23-.616.476-1.23.755-1.827.288-.619.636-1.206 1.153-1.675.187-.173.355-.365.538-.544.127-.122.281-.184.46-.207.246-.033.44.035.55.273.13.28.261.56.386.841.222.491.546.871 1.051 1.106.666.312 1.353.434 2.051.23.42-.12.821-.356 1.192-.596.31-.2.558-.494.844-.729.275-.22.564-.419.847-.625.105-.076.206-.153.305-.23.176-.13.176-.13.415-.158.002.051.013.102.007.153-.118.988.728 1.784 1.718 1.606.208-.038.413-.104.617-.167.25-.082.28-.1.263-.362-.033-.66-.07-1.319-.134-1.978-.084-.913-.204-1.82-.296-2.734-.095-.965-.16-1.93-.262-2.896-.08-.774-.203-1.54-.287-2.313-.08-.752-.133-1.508-.202-2.262-.022-.266-.05-.53-.077-.835-.135 0-.269-.006-.403.002-1.52.103-2.986-.102-4.32-.875-1.135-.658-1.834-1.638-1.973-2.974-.03-.27.018-.533.108-.784.154-.443.31-.888.484-1.322.11-.276.27-.527.524-.696.164.076.195.158.116.311-.155.29-.289.592-.429.891-.295.608-.163 1.193.137 1.743.613 1.127 1.634 1.695 2.83 2.03.84.237 1.696.278 2.562.295.044 0 .085-.006.126-.017.021-.003.038-.018.062-.03.008-.027.027-.058.021-.085-.14-1.252-.284-2.5-.43-3.75-.005-.04-.034-.076-.05-.116l.006.01c-.05-.552-.117-1.1-.153-1.656-.05-.71-.087-1.423-.119-2.138-.01-.236.058-.29.297-.325.662-.092 1.285.082 1.834.4.503.293.92.724 1.204 1.25.108.194.228.382.331.576.217.412.316.857.401 1.31.17.866.35 1.733.52 2.6.058.301.103.608.16.95.865-.313 1.65-.708 2.458-1.132-.028-.273-.05-.544-.086-.817-.167-1.259-.32-2.514-.51-3.767-.1-.654-.219-1.312-.43-1.935-.132-.392-.14-.708.05-1.057.075-.138.108-.3.175-.445.035-.077.101-.144.158-.215.06.038.1.05.11.071.105.232.243.453.307.692.347 1.366.555 2.757.72 4.157.103.876.221 1.754.333 2.63.01.073.031.145.053.237.407-.19.797-.383 1.196-.55.445-.185.891-.362 1.347-.506.333-.109.684-.149 1.042-.094.332.05.434.15.368.478-.05.266-.13.54-.259.776-.25.46-.527.902-.82 1.332-.308.448-.644.875-.973 1.31-.253.333-.503.664-.612 1.076-.008.026-.04.048-.069.083-.135-.103-.098-.229-.048-.34.186-.418.345-.853.586-1.239.246-.395.561-.752.872-1.099.26-.287.44-.597.49-1.024-.11-.029-.228-.07-.346-.08-.437-.044-.852.071-1.249.234-.498.21-.978.464-1.455.691 0 .444-.035.863.007 1.27.1.99.121 1.98.115 2.972-.006.903.212 1.751.623 2.553.283.552.756.727 1.337.765.888.05 1.75-.076 2.573-.386.968-.365 1.925-.76 2.884-1.143.295-.118.588-.233.887-.404-.093-.024-.185-.053-.28-.067-1.307-.213-2.614-.405-3.917-.635-1.089-.193-2.175-.425-3.26-.644-.246-.048-.285-.14-.142-.352.182-.265.363-.528.57-.772.1-.117.25-.207.392-.269.696-.294 1.418-.532 2.09-.873.661-.333 1.35-.648 1.894-1.174.36-.347.673-.742 1.016-1.105.288-.302.584-.593.888-.874.211-.194.481-.273.76-.32.27-.045.456.088.493.367.036.263.03.532.07.796.04.272.071.556.174.806.187.463.533.785 1.014.96.79.284 1.605.36 2.426.31.606-.037 1.206-.148 1.806-.23 1.17-.164 2.282-.54 3.394-.903.374-.122.74-.27 1.107-.407.098-.036.198-.067.336-.117-.012.106-.008.178-.03.241-.07.2-.133.408-.23.597-.248.48.2 1.304.794 1.39 0-.158.006-.313 0-.467-.032-.97-.094-1.939-.097-2.908-.002-.57 0-1.13-.218-1.667-.028-.069.01-.196.063-.257.201-.233.414-.458.635-.674.185-.178.29-.142.35.101.254 1.025.498 2.051.757 3.073.05.188.01.311-.135.418-.05.036-.096.083-.145.126-.238.21-.4.428-.348.793.068.474.06.957.085 1.437.002.061.014.123.032.23.346-.015.68-.032 1.028-.046.055-.142.103-.258.148-.373.377-1.004.833-1.964 1.463-2.836.131-.182.278-.352.438-.507.302-.295.557-.279.838.05.252.288.373.64.46 1.007.105.46.086.915-.087 1.353-.193.492-.332 1.01-.686 1.432-.282.336-.618.594-1.025.74-.42.146-.855.261-1.287.377-.307.083-.356.09-.367.415-.004.157-.053.315-.097.467-.01.04-.094.096-.112.085-.045-.027-.104-.087-.1-.13.01-.115.045-.229.08-.34.032-.109.076-.214.128-.364-.26.03-.478.053-.707.08 0 .1-.009.185 0 .265l.485 3.745c.015.115.051.23.046.346-.022.385.187.627.466.852 1.194.963 2.39 1.932 3.571 2.914.78.65 1.543 1.312 2.098 2.18.323.502.544 1.04.662 1.62.042.205.047.424.038.633-.02.5-.038 1.001-.092 1.497-.037.333-.22.621-.415.893-.197.277-.406.548-.613.82-.016.02-.05.023-.1.044 0-.062-.013-.116.001-.156.048-.118.092-.242.16-.35.378-.59.57-1.255.73-1.933.094-.394.044-.754-.135-1.114-.38-.756-.919-1.38-1.525-1.96-1.038-.988-2.217-1.802-3.318-2.71-.337-.282-.66-.574-.992-.86-.046-.038-.099-.069-.182-.125.033.337.071.63.086.925.041.821.112 1.64-.03 2.457-.118.676-.285 1.337-.644 1.925-.163.271-.386.511-.608.738-.784.785-1.587 1.548-2.533 2.146-.79.5-1.553 1.056-2.372 1.51-1.005.555-2.026 1.088-3.13 1.441-1.043.332-2.07.332-3.049-.15-.966-.473-1.65-1.207-1.968-2.276-.19-.626-.16-1.259-.19-1.93-.136.071-.258.127-.369.195-.745.463-1.76.637-2.567.97-1.135.465-2.073 1.046-3.296 1.214-.09.013-.188-.016-.286-.016-.842-.002-1.49-.4-2.074-.969-.609-.593-1.003-1.293-1.216-2.106-.165-.64-.289-1.289-.343-1.949-.084-1.074-.19-2.146-.269-3.218-.089-1.204-.154-2.404-.244-3.608-.05-.699-.135-1.398-.207-2.099-.086-.839-.163-1.676-.26-2.513-.05-.41-.132-.82-.202-1.24-.777.235-1.536.467-2.312.703.013.274.007.527.038.78.153 1.344.328 2.688.475 4.034.09.826.136 1.656.21 2.485.094 1.02.19 2.04.294 3.057.095.914.173 1.83-.037 2.74-.052.22-.168.43-.272.636-.23.454-.52.876-.948 1.148-.685.434-1.61.46-2.139-.297-.269-.385-.416-.81-.489-1.268-.129.04-.25.07-.366.114-.308.11-.579.28-.806.507-.37.368-.699.78-1.097 1.113-.617.521-1.337.897-2.165.77-.856-.136-1.607-.512-2.01-1.357-.088-.18-.157-.376-.269-.542-.125-.194-.284-.369-.44-.538-.1-.105-.225-.094-.356-.042-.288.112-.492.331-.7.54-.294.297-.569.61-.749.985-.18.374-.36.748-.512 1.131-.28.715-.513 1.445-.814 2.148-.149.36-.388.684-.608 1.01-.158.23-.28.24-.559.163-.394-.108-.66-.367-.897-.68-.614-.82-.967-1.734-.942-2.76.011-.422.114-.843.182-1.264.011-.049.067-.089.102-.132z" transform="translate(0 -1)"/>
            <path fill="#FFF" d="M20.768 60.1l.088-.126c-.076.078-.11.126-.088.126M49.846 87.834c.226-1.029.443-1.726.927-2.558 1.822.236 3.358.373 4.444.385 6.497.07 8.56-3.983 8.56-3.983v-.573s-1.62 2.623-7.098 2.398c-3.505-.13-8.982-1.112-17.229-2.866-4.698-1.005-8.813-1.925-12.7-2.194-2.303-.148-4.163 0-4.163 0l20.255-21.788-.106-.626-19.165.084-2.715 3.861c.471-.475 2.812-2.167 7.428-2.167 3.612 0 8.648-.042 8.648-.042L15.123 81.787l.438.526s2.851-1.568 7.026-1.568c5.147 0 10.418 1.221 17.902 2.758 2.311.477 4.585.9 6.671 1.24l-1.755 8.088H34.892l1.866-8.94h-4.367s.745 1.457.336 3.315l-2.989 13.938c-.335 1.537-.635 2.324-1.905 3.938h4.406l2.283-10.593h10.55l-2.3 10.593h4.54s-.862-1.454-.45-3.306l2.984-13.942zM69.586 101.338c.454-2.237 4.396-20.788 4.396-20.788l-4.669 1.031s.869.732.329 3.281c-.423 1.971-4.122 20.22-4.122 20.22h4.294s-.794-.98-.228-3.744M96.524 80.55l-4.641 1.031s.876.732.324 3.281c-.42 1.971-4.115 20.22-4.115 20.22h4.291s-.794-.98-.229-3.744c.467-2.237 4.37-20.788 4.37-20.788M66.657 79.02h4.29s-.798-.983-.228-3.755c.457-2.232 2.408-11.724 2.408-11.724l-4.672 1.026s.883.731.329 3.284c-.426 1.972-2.127 11.168-2.127 11.168M74.355 60.354L72.681 57.903 70.094 59.498 71.768 61.939z" transform="translate(0 -1)"/>
            <path fill="#FFF" d="M55.07 71.046c2.25-3.423 4.76-5.208 5.598-5.177 1.04.043 1.98 1.67.875 5.44-1.648 5.626-4.616 6.408-5.93 6.408-.803 0-1.33-.5-1.611-.898.014-.444.068-.94.19-1.554.116-.553.449-2.15.879-4.219m-4.945 7.973h4.299l-.018-.026c.312.032.735.062 1.37.09 2.684.091 7.655-1.483 9.419-7.933 1.612-5.909-.647-7.506-3.06-7.506-1.312 0-3.65 1.462-4.964 2.774-.57.581-1.045 1.08-1.442 1.513 1.263-6.027 2.839-13.453 2.839-13.453l-4.654 1.032s.878.73.33 3.286c-.421 1.968-4.12 20.223-4.12 20.223M100.478 69.99c-.17.342-.341.693-.485.999-1.705 3.708-4.391 5.898-5.431 5.736-.778-.106-1.754-1.566-.656-5.415 1.346-4.747 3.767-6.463 5.15-6.41 1.54.047 2.315 1.003 2.342.9-.028.086-.253 1.109-.41 1.81-.105.442-.297 1.328-.51 2.38m2.29 5.275c.73-5.15 2.284-10.667 2.284-10.667l-.157-.011c-.664-.198-3.303-.957-5.463-.995-3.013-.05-7.228 1.823-9.015 7.865-1.443 4.878.147 7.464 2.548 7.496 1.982.016 3.613-1.45 4.554-2.331.855-.811 1.533-1.65 2.04-2.378-.626 3.255-.672 4.725-.672 4.725l4.112.05s-.626-.956-.23-3.754M60.619 96.096c-.168.346-.334.691-.47 1-1.698 3.705-4.386 5.896-5.424 5.736-.773-.116-1.752-1.575-.655-5.423 1.348-4.744 3.758-6.46 5.148-6.413 1.517.053 2.3 1.009 2.33.902-.03.085-.263 1.114-.414 1.81-.102.444-.29 1.333-.515 2.388m4.583-5.391l-.166-.015c-.651-.198-3.294-.958-5.438-.998-3.007-.053-7.226 1.828-9.018 7.872-1.445 4.874.147 7.463 2.558 7.49 1.969.021 3.608-1.442 4.542-2.332.854-.813 1.526-1.642 2.044-2.376-.634 3.258-.672 4.729-.672 4.729l4.097.043s-.625-.956-.232-3.748c.734-5.158 2.285-10.665 2.285-10.665M83.223 96.096c-.172.346-.335.691-.478 1-1.696 3.705-4.378 5.896-5.418 5.736-.773-.116-1.75-1.575-.657-5.423 1.351-4.744 3.762-6.46 5.148-6.413 1.52.053 2.306 1.009 2.336.902-.029.085-.268 1.114-.424 1.81l-.507 2.388m4.582-5.391l-.17-.015c-.645-.198-3.29-.958-5.437-.998-3.006-.053-7.225 1.828-9.015 7.872-1.47 4.874.146 7.463 2.557 7.49 1.97.021 3.61-1.442 4.54-2.332.855-.813 1.536-1.642 2.04-2.376-.628 3.258-.667 4.729-.667 4.729l4.096.043s-.626-.956-.227-3.748c.733-5.158 2.283-10.665 2.283-10.665M38.538 71.31c1.354-4.748 3.756-6.464 5.143-6.41 1.544.046 2.334 1.008 2.357.9-.027.085-.262 1.11-.422 1.81-.097.441-.281 1.327-.508 2.38-.17.341-.33.693-.472.998-1.723 3.708-4.403 5.9-5.444 5.736-.775-.105-1.75-1.566-.654-5.415m-3.487.147c-1.45 4.878.146 7.464 2.55 7.496 1.974.016 3.617-1.45 4.549-2.33.856-.812 1.53-1.65 2.045-2.379-.635 3.255-.673 4.725-.673 4.725l4.116.051s-.628-.957-.231-3.754c.728-5.15 2.284-10.667 2.284-10.667l-.17-.012c-.643-.197-3.286-.957-5.45-.995-3.013-.05-7.226 1.823-9.02 7.865M77.734 58.796c-.422 1.968-4.118 20.223-4.118 20.223h4.296s-.796-.982-.23-3.754c.093-.458.334-1.62.662-3.175 2.237-4.547 5.398-6.459 6.21-6.19.855.273.882 1.362.001 5.41-.489 2.282-2.189 10.621-2.189 10.621l4.385.064s-.81-1.048-.208-4.065c.49-2.443 1.427-6.74 1.816-8.586 1.05-5.109-.224-5.7-2.295-5.753-1.654-.039-3.987 1.65-5.158 2.763-.708.68-1.27 1.28-1.739 1.806 1.28-6.059 2.888-13.682 2.888-13.682l-4.652 1.032s.88.73.331 3.286" transform="translate(0 -1)"/>
            <path fill="#0D6937" d="M125.834 116.497c.028.007.055.02.086.02h.096c-.06.059-.114.123-.162.195v-.115c0-.036-.01-.068-.02-.1zm-1.437.626l-.167-.605h.01c.193 0 .35-.156.35-.348v-1.823h.044v1.823c0 .06.02.115.048.166-.05.043-.09.099-.109.166l-.176.62zm3.297.86l-.385-.052c-.017-.003-.033-.004-.049-.004-.168 0-.316.122-.344.293-.034.204-.07.256-.079.256-.058 0-.137-.184-.137-.594 0-.555.115-.634.146-.64.026.026.05.117.068.27.012.092.06.176.134.233.061.048.136.073.213.073l.047-.003.39-.053c.092-.013.175-.063.231-.137.056-.074.081-.17.067-.262-.072-.52-.28-.81-.516-.97.051-.062.086-.137.086-.223v-2.53c0-.192-.157-.348-.349-.348h-.596c-.156 0-.293.103-.336.254l-.176.62-.17-.618c-.043-.152-.18-.256-.337-.256h-.619c-.03 0-.059.01-.088.017-.03-.007-.058-.017-.09-.017h-1.539c-.193 0-.349.156-.349.349v.356c0 .193.156.35.35.35h.207v1.823c0 .027.01.052.015.078h-.218c-.192 0-.349.156-.349.349v2.528c0 .193.157.35.35.35h.348c.123 0 .233-.064.294-.161.064.098.173.16.294.16h.304c.124 0 .237-.065.3-.168.06.1.171.169.298.169h.395c.192 0 .35-.157.35-.35v-.106c.216.32.543.5.966.5.374 0 1.025-.147 1.172-1.138.014-.093-.01-.187-.066-.261-.056-.075-.14-.124-.233-.137z" transform="translate(0 -1)"/>
            <path fill="#FFF" d="M124.805 113.641L124.805 113.996 124.241 113.996 124.241 116.169 123.824 116.169 123.824 113.996 123.266 113.996 123.266 113.641zM125.602 113.641L126.106 115.465 126.622 113.641 127.217 113.641 127.217 116.169 126.823 116.169 126.823 114.013 126.224 116.169 125.92 116.169 125.332 114.008 125.332 116.169 124.984 116.169 124.984 113.641zM123.89 116.597L124.394 118.419 124.91 116.597 125.505 116.597 125.505 119.124 125.111 119.124 125.111 116.969 124.512 119.124 124.208 119.124 123.62 116.965 123.62 119.124 123.272 119.124 123.272 116.597zM127.648 118.329c-.03.205-.125.842-.826.842-.823 0-.914-.883-.914-1.3 0-.402.08-1.32.92-1.32.706 0 .794.648.824.865l-.391.053c-.026-.212-.076-.573-.425-.573-.435 0-.485.584-.485.986 0 .455.084.944.485.944.258 0 .365-.183.425-.55l.387.053z" transform="translate(0 -1)"/>
        </g>
    </g>
</svg>
